HIERARCHY
ROOT hip
{
  OFFSET 0 0 0
  CHANNELS 6 Xposition Yposition Zposition Zrotation Yrotation Xrotation
  JOINT abdomen
  {
    OFFSET 0 20.6881 -0.73152
    CHANNELS 3 Zrotation Xrotation Yrotation
    JOINT chest
    {
      OFFSET 0 11.7043 -0.48768
      CHANNELS 3 Zrotation Xrotation Yrotation
      JOINT neck
      {
        OFFSET 0 22.1894 -2.19456
        CHANNELS 3 Zrotation Xrotation Yrotation
        JOINT head
        {
          OFFSET -0.24384 7.07133 1.2192
          CHANNELS 3 Zrotation Xrotation Yrotation
          JOINT leftEye
          {
            OFFSET 4.14528 8.04674 8.04672
            CHANNELS 3 Zrotation Xrotation Yrotation
            End Site
            {
              OFFSET 1 0 0
            }
          }
          JOINT rightEye
          {
            OFFSET -3.6576 8.04674 8.04672
            CHANNELS 3 Zrotation Xrotation Yrotation
            End Site
            {
              OFFSET 1 0 0
            }
          }
        }
      }
      JOINT rCollar
      {
        OFFSET -2.68224 19.2634 -4.8768
        CHANNELS 3 Zrotation Xrotation Yrotation
        JOINT rShldr
        {
          OFFSET -8.77824 -1.95073 1.46304
          CHANNELS 3 Zrotation Xrotation Yrotation
          JOINT rForeArm
          {
            OFFSET -28.1742 -1.7115 0.48768
            CHANNELS 3 Zrotation Xrotation Yrotation
            JOINT rHand
            {
              OFFSET -22.5879 0.773209 7.07136
              CHANNELS 3 Zrotation Xrotation Yrotation
              JOINT rThumb1
              {
                OFFSET -1.2192 -0.487915 3.41376
                CHANNELS 3 Zrotation Xrotation Yrotation
                JOINT rThumb2
                {
                  OFFSET -3.37035 -0.52449 3.41376
                  CHANNELS 3 Zrotation Xrotation Yrotation
                  End Site
                  {
                    OFFSET -1.78271 -1.18214 1.43049
                  }
                }
              }
              JOINT rIndex1
              {
                OFFSET -7.75947 0.938293 5.60832
                CHANNELS 3 Zrotation Xrotation Yrotation
                JOINT rIndex2
                {
                  OFFSET -2.54057 -0.884171 1.56538
                  CHANNELS 3 Zrotation Xrotation Yrotation
                  End Site
                  {
                    OFFSET -1.62519 -0.234802 1.16502
                  }
                }
              }
              JOINT rMid1
              {
                OFFSET -8.24714 1.18213 3.41376
                CHANNELS 3 Zrotation Xrotation Yrotation
                JOINT rMid2
                {
                  OFFSET -3.10165 -0.590103 1.0647
                  CHANNELS 3 Zrotation Xrotation Yrotation
                  End Site
                  {
                    OFFSET -2.48547 -0.328903 0.83742
                  }
                }
              }
              JOINT rRing1
              {
                OFFSET -8.82822 0.546677 1.51678
                CHANNELS 3 Zrotation Xrotation Yrotation
                JOINT rRing2
                {
                  OFFSET -2.60934 -0.819778 -0.0198488
                  CHANNELS 3 Zrotation Xrotation Yrotation
                  End Site
                  {
                    OFFSET -2.33842 -0.294052 0.168128
                  }
                }
              }
              JOINT rPinky1
              {
                OFFSET -8.27202 -0.0477905 -0.4584
                CHANNELS 3 Zrotation Xrotation Yrotation
                JOINT rPinky2
                {
                  OFFSET -1.82734 -0.647385 -0.700984
                  CHANNELS 3 Zrotation Xrotation Yrotation
                  End Site
                  {
                    OFFSET -1.69225 -0.51767 -0.607171
                  }
                }
              }
            }
          }
        }
      }
      JOINT lCollar
      {
        OFFSET 2.68224 19.2634 -4.8768
        CHANNELS 3 Zrotation Xrotation Yrotation
        JOINT lShldr
        {
          OFFSET 8.77824 -1.95073 1.46304
          CHANNELS 3 Zrotation Xrotation Yrotation
          JOINT lForeArm
          {
            OFFSET 28.1742 -1.7115 0.48768
            CHANNELS 3 Zrotation Xrotation Yrotation
            JOINT lHand
            {
              OFFSET 22.5879 0.773209 7.07136
              CHANNELS 3 Zrotation Xrotation Yrotation
              JOINT lThumb1
              {
                OFFSET 1.2192 -0.487915 3.41376
                CHANNELS 3 Zrotation Xrotation Yrotation
                JOINT lThumb2
                {
                  OFFSET 3.37035 -0.52449 3.41376
                  CHANNELS 3 Zrotation Xrotation Yrotation
                  End Site
                  {
                    OFFSET 1.78271 -1.18214 1.43049
                  }
                }
              }
              JOINT lIndex1
              {
                OFFSET 7.75947 0.938293 5.60832
                CHANNELS 3 Zrotation Xrotation Yrotation
                JOINT lIndex2
                {
                  OFFSET 2.54057 -0.884171 1.56538
                  CHANNELS 3 Zrotation Xrotation Yrotation
                  End Site
                  {
                    OFFSET 1.62519 -0.234802 1.16502
                  }
                }
              }
              JOINT lMid1
              {
                OFFSET 8.24714 1.18213 3.41376
                CHANNELS 3 Zrotation Xrotation Yrotation
                JOINT lMid2
                {
                  OFFSET 3.10165 -0.590103 1.0647
                  CHANNELS 3 Zrotation Xrotation Yrotation
                  End Site
                  {
                    OFFSET 2.48547 -0.328903 0.83742
                  }
                }
              }
              JOINT lRing1
              {
                OFFSET 8.82822 0.546677 1.51678
                CHANNELS 3 Zrotation Xrotation Yrotation
                JOINT lRing2
                {
                  OFFSET 2.60934 -0.819778 -0.0198488
                  CHANNELS 3 Zrotation Xrotation Yrotation
                  End Site
                  {
                    OFFSET 2.33842 -0.294052 0.168128
                  }
                }
              }
              JOINT lPinky1
              {
                OFFSET 8.27202 -0.0477905 -0.4584
                CHANNELS 3 Zrotation Xrotation Yrotation
                JOINT lPinky2
                {
                  OFFSET 1.82734 -0.647385 -0.700984
                  CHANNELS 3 Zrotation Xrotation Yrotation
                  End Site
                  {
                    OFFSET 1.69225 -0.51767 -0.607171
                  }
                }
              }
            }
          }
        }
      }
    }
  }
  JOINT rButtock
  {
    OFFSET -8.77824 4.35084 1.2192
    CHANNELS 3 Zrotation Xrotation Yrotation
    JOINT rThigh
    {
      OFFSET 0 -1.70687 -2.19456
      CHANNELS 3 Zrotation Xrotation Yrotation
      JOINT rShin
      {
        OFFSET 0 -36.8199 0.73152
        CHANNELS 3 Zrotation Xrotation Yrotation
        JOINT rFoot
        {
          OFFSET 0.73152 -45.1104 -5.12064
          CHANNELS 3 Zrotation Xrotation Yrotation
          End Site
          {
            OFFSET -1.1221 -3.69964 12.103
          }
        }
      }
    }
  }
  JOINT lButtock
  {
    OFFSET 8.77824 4.35084 1.2192
    CHANNELS 3 Zrotation Xrotation Yrotation
    JOINT lThigh
    {
      OFFSET 0 -1.70687 -2.19456
      CHANNELS 3 Zrotation Xrotation Yrotation
      JOINT lShin
      {
        OFFSET 0 -36.8199 0.73152
        CHANNELS 3 Zrotation Xrotation Yrotation
        JOINT lFoot
        {
          OFFSET -0.73152 -45.1104 -5.12064
          CHANNELS 3 Zrotation Xrotation Yrotation
          End Site
          {
            OFFSET 1.1221 -3.69964 12.103
          }
        }
      }
    }
  }
}
MOTION
Frames:	4
Frame Time:	0.03333
-1.051802933216095 32.86924958229065 2.6528477668762207 -2.9009252013638087 3.3770216164688436 1.7158943172774723 -1.1240555442098112 8.623096751668173 1.4852139628486947 0.9659076366200435 -4.966680484227846 0.022857094655315446 -2.7442692632208656 8.77467401727639 -2.8670282531735047 4.329064395960584 -14.015645507061837 -2.4035111255289294 -0.5235962719968008 0.07641554278429441 -0.2542659314477573 0.1456757020208468 -0.3438939682533389 -0.250746302951938 0.89772100436216 0.25860350177711205 0.479423197478507 26.27271367078403 16.000607762894262 8.850166390625247 -13.338065981960831 -15.919024568353047 35.635139126518354 -1.8921745628446256 -7.1982868474049555 -4.2742747528728575 0.29268465163159474 -0.07270444220808997 -1.247157964611655 -0.5990088708705876 -0.39997582443509383 1.3260797332540946 -0.1610790992803346 -1.538652615862934 -0.07207445730875546 5.074686265573257 2.5928614716814313 -0.28515898378543075 0.14407947880768687 0.3502421755196162 -0.3385649799577009 1.5492437846663907 0.260565580337904 0.11939798993225077 1.0626608947512708 0.15672778853136043 -0.6799595258616383 5.4405419333704055 1.52527174167035 -0.3676967773044367 -0.6512606717948315 -0.11418698248235416 0.7072816699238644 2.046517628179873 0.3621750762885838 0.024189395090077833 1.076677296701783 -0.3763008679875222 -1.0519219163853066 -30.3185950086613 16.807514358608522 -13.551610138813988 12.147988335129796 -16.3155136345777 -33.62414018956984 3.252650274985258 -6.784849947415383 3.829627730357735 -0.550866175784047 -0.22333360552235626 -0.5932254615517323 -0.2534053009319092 0.26634754891373136 0.13575115701234058 -0.4514721424041107 -0.26474530926440804 0.5368982254879593 -3.2351790779751886 2.4228704429576844 -0.7945342416413097 -0.7732251186479278 -0.42824944586521446 0.5168045026408694 -2.4573639654833066 1.1407285695823413 -0.47651241631417085 -0.7833947900744007 0.852727133204701 -0.9687880554590849 -5.213973032656858 -0.8541870861397912 0.4773207265137595 -0.6202558818312048 -0.4815165437374101 -0.6977859994302542 -1.0045357714710506 -0.9204154818182909 -0.7688147907956564 0.7871899740145477 -1.02214965540175 0.7612569730356258 -16.219484589941906 -20.392086427490423 -13.805629142914993 -2.7918987336243033 33.58720252653841 4.038137184018946 -1.582802211605956 -5.599150878729149 -4.8174408508630675 0.14253907104665064 0.1399762426638017 -1.1623970245590893 20.564968760667202 -18.551104559361868 17.25114197539002 3.766217534763806 34.70104245562741 -2.38902941694121 2.9017668087356014 -6.134846030427834 7.501650553164718
-1.7432298511266708 39.70387578010559 4.840823635458946 -3.6421855683046056 3.9312502730369467 1.844010416695223 -1.3147576274877406 10.127034397465989 2.3043478778377455 1.2029689885591999 -6.070620481001735 0.340672520203473 -3.3347297254583594 10.338920525898123 -2.914835735382186 5.265753123641548 -16.501668732859105 -3.109475849603451 -0.4517299820452787 0.16382708982271435 -0.16570491159679182 0.20698625477523155 -0.34519130398924464 -0.15557447373740677 0.6729502576693243 0.2416741842281479 0.25015306366992535 31.587405099828718 19.40502163958603 10.622013083974934 -15.943729362580982 -19.07808097458503 42.94073678352068 -2.564137964900589 -8.17272603062858 -4.571455429886466 0.2093626403380803 -0.05584293296293667 -0.8796378650911396 -0.3416024131063732 -0.18930061383760746 0.9770867353006504 -0.012443217285588073 -1.1104371075001578 -0.0816994745097728 5.888654423115663 3.237872947272524 -0.11605142402256931 0.030539003078743496 0.1534054084282517 -0.2523454743522201 1.9739131441894606 0.374624350030975 0.20801553226664074 0.8108369426947781 0.10286312914806804 -0.5869862438274842 6.527719365260614 1.2414531558291078 -0.42266816745710917 -0.45001373693375435 -0.08081070281413151 0.6125925163041562 2.0483154620354673 0.12883428313680684 0.08534693559879845 0.870803122121434 -0.2828056100903911 -0.918603347254122 -36.89660676432801 20.38762972905699 -16.603351466580378 14.6502435054896 -18.981039354404782 -40.703043868019435 3.8318526644798667 -8.5148775269112 3.9236077182425255 -0.4046604270712234 -0.27198496293907776 -0.6101781511542625 -0.18282951652712284 0.3527537908239033 -0.06213903335636616 -0.5142001194938318 -0.31012092396344726 0.38790960157517873 -4.3035297337484915 3.134641041270128 -0.803891707525933 -0.6270180892746348 -0.43820111152720237 0.32894151022141743 -2.5735057827906727 1.097098708546475 -0.45099579007035523 -0.5802675788400131 0.7461075067348317 -0.7845052294230567 -6.499586669842977 -0.4310380840372838 0.407525584706338 -0.4685798986451415 -0.5065083659930454 -0.7206015526615942 -1.2797526945480138 -0.9296986693956903 -0.6701296029855206 0.6399293346009274 -0.8193528545684617 0.6602660627720817 -20.02840959003851 -24.161425358704925 -17.098890228601267 -3.4441980210597998 40.600894973887314 4.619962152711428 -2.208110512432266 -6.613614116715402 -5.913255056958756 0.21705636819042365 0.11070723455396407 -0.884437353643543 24.844331577584896 -22.048666848406977 20.41327025920122 4.241725486383162 41.34597640478191 -3.400021211281804 3.652791144538343 -7.212763433350798 9.144376789123546
-2.3048236034810543 44.930511713027954 6.516965478658676 -4.216217718040926 4.507746840403172 1.9711360319616158 -1.5177908702601877 11.232643948605123 2.866994529114478 1.3166905710228543 -6.9275902288980715 0.5431514771165176 -3.7652416714861405 11.546631159845193 -3.0877308751636576 6.037429603616881 -18.44136903260915 -3.6097289362555283 -0.3873706036001295 0.24360312569929468 -0.08936067225217265 0.2382799003757689 -0.35828752471208297 -0.014990504320032594 0.4508759415947627 0.2320246743956537 0.14011119226076235 35.5596245550547 22.06637752892482 12.080659745386395 -17.971248819584464 -21.54799178413024 48.61188383251728 -2.93661358010736 -8.687236496842823 -4.748071742105125 0.21590003850828166 -0.09792479565644305 -0.5785968505360045 -0.18186776719504685 -0.13702410683847527 0.6757475402995619 0.0425402324198377 -0.7667459371682301 0.016588601833150293 6.490325360215263 3.7218849112953687 -0.03752783406440037 -0.10207104064775813 0.14555191818235352 -0.18192384945143503 2.1655358089014607 0.48188313279676936 0.2631011279847126 0.6131261781939165 0.06972678655486853 -0.47431720418709933 7.373982364746133 1.0280271399042518 -0.39833263033117683 -0.4300414100269908 -0.012440402500598087 0.5510041669496224 2.1162043407342206 -0.08477737519525608 -0.019374271807777517 0.7811978704000366 -0.28736991068367856 -0.7693163294519764 -42.06240177701371 23.268750370035523 -18.82840853211709 16.642216950505045 -21.181372842693342 -46.20172864047322 4.2101046987337645 -9.942504884207047 3.9824220502986822 -0.30373659139976295 -0.1705884168120716 -0.5131909056831095 -0.012272515917190646 0.4223814595945273 -0.20538912442757248 -0.4902432309800121 -0.3528347925985914 0.27043056129437093 -5.167178125992631 3.700951662149749 -0.8500255799445494 -0.46268283070962885 -0.38363710480592417 0.23458087269253097 -2.6774636098357942 1.0839392818933877 -0.415694357551541 -0.431817312572047 0.6369275198215597 -0.59204826777611 -7.4828052074710065 -0.10452217142529356 0.38979390669288244 -0.29563558683773117 -0.4510604634240588 -0.6834821425652194 -1.4754629073131493 -0.901968848417379 -0.5282652932638864 0.5076497546363781 -0.7052841597567531 0.5683465508608136 -23.140342813639286 -27.10997704226441 -19.80879168746592 -3.936874506931629 46.03441632656459 4.9709869184995386 -2.7567034091614624 -7.467877829039944 -6.756211391112343 0.20689985021418825 0.06002960547042309 -0.6750994193803511 28.218533820030405 -24.73357323000397 23.027767635739135 4.482540027271241 46.56943528953544 -4.22499152291663 4.120202333783472 -8.11878802675299 10.362545296463551
-2.8482829220592976 48.98795187473297 7.703608833253384 -4.674852114202588 5.074081793831711 2.096329770909953 -1.7061797605653042 12.05908659289291 3.272721426191575 1.342601747412944 -7.581407525876603 0.6723972257899647 -4.067944983330527 12.485907675447946 -3.319924009771887 6.6931824054514655 -19.979522511054142 -3.9793108991317414 -0.3340436882118434 0.31690871793583836 -0.02614993952634917 0.2930509205258367 -0.3785814841596454 0.1526534472893156 0.23570139724238331 0.21925158031749517 0.08085353823878953 38.54789037354322 24.166886094946353 13.29849613477801 -19.55159408407992 -23.49502087685971 53.02909011216959 -3.128210631609973 -8.894899007046954 -4.842047461121685 0.24533305786958554 -0.16522219598132912 -0.31373374718884023 -0.06124065003709792 -0.15460629442255747 0.44048786419740793 0.028623615264230937 -0.48010317482689346 0.15370145444008945 6.953988056266525 4.094218586633451 0.012416750302554274 -0.2293057788583126 0.19894500102822413 -0.14855351951830967 2.202474325706536 0.5569544890163199 0.280583584134742 0.4716008166098441 0.052177149091049674 -0.3719098834444238 8.036342520829058 0.8800695543910256 -0.3516137095214665 -0.4989506549547205 0.05583592935099477 0.5465220687502131 2.1915936209152944 -0.26464768558404445 -0.20531176453109418 0.7749021435325774 -0.34884892365063935 -0.6095444376653323 -46.11327769072156 25.613516746060466 -20.449253403296137 18.237629612309547 -23.00997499295125 -50.523804045365594 4.452402244445382 -11.133351781093355 4.03199086753958 -0.24091731389074586 -7.685296837586612e-05 -0.3571364777543772 0.17201746047312488 0.4899594579643392 -0.3172250944326275 -0.43882695429033125 -0.40992885079883046 0.17871221979850097 -5.868636846205648 4.142770559461663 -0.9096194073397338 -0.31137647815153957 -0.3071283672920561 0.19198279710815974 -2.7671004511821025 1.0786998864697532 -0.3978026236598397 -0.3232851264128684 0.5214346772070505 -0.40088962904084746 -8.268830207345244 0.13294525660436116 0.3962245564768759 -0.1432796529837078 -0.39561069322522097 -0.6155459327899521 -1.6074713607841609 -0.8615696668589288 -0.3934561954289051 0.3997878875112127 -0.6186896340771563 0.5032440691783082 -25.71040639453168 -29.418058472257215 -22.018118827344093 -4.325691136284244 50.26465983806614 5.183125763930965 -3.218430173469848 -8.181423422762945 -7.404372437684458 0.18294877803333362 0.01461159557376217 -0.5122312107438699 30.91245263623723 -26.827487248381853 25.197083527459373 4.576854267538538 50.69895058625223 -4.90704140682941 4.4161279635370905 -8.866415410660707 11.269766026744142
